<svg xmlns="http://www.w3.org/2000/svg" viewBox="0 0 560 500" width="560" height="500" role="img" aria-labelledby="t2"><title id="t2">Air conditioning system inspection</title>
<defs><linearGradient id="g1" x1="0" y1="0" x2="1" y2="1"><stop offset="0" stop-color="#0f2948"/><stop offset="1" stop-color="#1f4a6e"/></linearGradient></defs>
<rect width="560" height="500" fill="url(#g1)"/>
<g fill="none" stroke="#8fc0d3" stroke-opacity=".35" stroke-width="2"><circle cx="420" cy="380" r="140"/><circle cx="420" cy="380" r="200"/><circle cx="420" cy="380" r="260"/></g>
<rect x="90" y="120" width="380" height="120" rx="20" fill="#f4f7f8"/><rect x="110" y="200" width="340" height="14" rx="7" fill="#9fc4d3"/><rect x="110" y="150" width="70" height="8" rx="4" fill="#d0a75d"/>
<g stroke="#78bfd0" stroke-width="7" stroke-linecap="round" fill="none"><path d="M160 262v50l40 30M280 262v90M400 262v50l-40 30"/></g>
<g><circle cx="280" cy="400" r="46" fill="#173553" stroke="#d0a75d" stroke-width="6"/><path d="M280 366v34l22 14" stroke="#f1d292" stroke-width="6" stroke-linecap="round" fill="none"/></g>
<g stroke="#d8bc83" stroke-width="10" stroke-linecap="round"><path d="M120 420l-40 40M440 420l40 40"/></g>
</svg>
